<svg width="1600" height="900" viewBox="0 0 1600 900" fill="none" xmlns="http://www.w3.org/2000/svg">
  <defs>
    <linearGradient id="heroGradient" x1="0%" y1="0%" x2="100%" y2="100%">
      <stop offset="0%" style="stop-color:#0f172a;stop-opacity:1" />
      <stop offset="100%" style="stop-color:#0b132b;stop-opacity:1" />
    </linearGradient>
    <linearGradient id="accentGradient" x1="0%" y1="0%" x2="100%" y2="100%">
      <stop offset="0%" style="stop-color:#60a5fa;stop-opacity:0.3" />
      <stop offset="100%" style="stop-color:#a78bfa;stop-opacity:0.3" />
    </linearGradient>
  </defs>
  
  <!-- Background -->
  <rect width="1600" height="900" fill="url(#heroGradient)"/>
  
  <!-- Abstract journaling elements -->
  <circle cx="200" cy="200" r="80" fill="url(#accentGradient)"/>
  <circle cx="1400" cy="300" r="120" fill="url(#accentGradient)"/>
  <circle cx="300" cy="700" r="60" fill="url(#accentGradient)"/>
  <circle cx="1300" cy="600" r="100" fill="url(#accentGradient)"/>
  
  <!-- Journal pages -->
  <rect x="600" y="200" width="400" height="500" rx="8" fill="rgba(255,255,255,0.1)" stroke="rgba(255,255,255,0.2)" stroke-width="2"/>
  <rect x="620" y="220" width="360" height="20" rx="4" fill="rgba(255,255,255,0.3)"/>
  <rect x="620" y="260" width="320" height="16" rx="4" fill="rgba(255,255,255,0.2)"/>
  <rect x="620" y="290" width="340" height="16" rx="4" fill="rgba(255,255,255,0.2)"/>
  <rect x="620" y="320" width="300" height="16" rx="4" fill="rgba(255,255,255,0.2)"/>
  <rect x="620" y="350" width="360" height="16" rx="4" fill="rgba(255,255,255,0.2)"/>
  <rect x="620" y="380" width="280" height="16" rx="4" fill="rgba(255,255,255,0.2)"/>
  <rect x="620" y="410" width="350" height="16" rx="4" fill="rgba(255,255,255,0.2)"/>
  <rect x="620" y="440" width="310" height="16" rx="4" fill="rgba(255,255,255,0.2)"/>
  <rect x="620" y="470" width="330" height="16" rx="4" fill="rgba(255,255,255,0.2)"/>
  <rect x="620" y="500" width="290" height="16" rx="4" fill="rgba(255,255,255,0.2)"/>
  <rect x="620" y="530" width="360" height="16" rx="4" fill="rgba(255,255,255,0.2)"/>
  <rect x="620" y="560" width="320" height="16" rx="4" fill="rgba(255,255,255,0.2)"/>
  <rect x="620" y="590" width="340" height="16" rx="4" fill="rgba(255,255,255,0.2)"/>
  <rect x="620" y="620" width="300" height="16" rx="4" fill="rgba(255,255,255,0.2)"/>
  <rect x="620" y="650" width="360" height="16" rx="4" fill="rgba(255,255,255,0.2)"/>
  
  <!-- Pen icon -->
  <g transform="translate(1200, 400)">
    <path d="M0 0 L20 -20 L25 -15 L5 5 Z" fill="#60a5fa"/>
    <path d="M5 5 L0 0 L-5 5 L0 10 Z" fill="#a78bfa"/>
    <circle cx="12.5" cy="-17.5" r="3" fill="#60a5fa"/>
  </g>
  
  <!-- AI brain icon -->
  <g transform="translate(150, 500)">
    <circle cx="0" cy="0" r="30" fill="none" stroke="#60a5fa" stroke-width="3"/>
    <circle cx="-15" cy="-10" r="8" fill="#60a5fa"/>
    <circle cx="15" cy="-10" r="8" fill="#60a5fa"/>
    <circle cx="0" cy="15" r="8" fill="#60a5fa"/>
    <circle cx="-20" cy="5" r="6" fill="#a78bfa"/>
    <circle cx="20" cy="5" r="6" fill="#a78bfa"/>
    <circle cx="-10" cy="20" r="6" fill="#a78bfa"/>
    <circle cx="10" cy="20" r="6" fill="#a78bfa"/>
  </g>
</svg>
